<svg xmlns="http://www.w3.org/2000/svg" width="124.266" height="81.434" viewBox="0 0 124.266 81.434"><defs><style>.a{fill:#242424;}.b{fill:#2480c5;}</style></defs><g transform="translate(-155.548 -184.657)"><path class="a" d="M276.625,271.1a2.952,2.952,0,0,1-3.135-3.134v-5.686a3.042,3.042,0,0,1,.859-2.276,3.112,3.112,0,0,1,2.276-.842,3.162,3.162,0,0,1,2.3.842,3.028,3.028,0,0,1,.867,2.276v.2a.223.223,0,0,1-.058.151.182.182,0,0,1-.141.066l-1.551.067a.177.177,0,0,1-.2-.2v-.417a1.361,1.361,0,0,0-.333-.95,1.137,1.137,0,0,0-.884-.367,1.116,1.116,0,0,0-.867.367,1.355,1.355,0,0,0-.333.95v5.969a1.357,1.357,0,0,0,.333.951,1.118,1.118,0,0,0,.867.366,1.139,1.139,0,0,0,.884-.366,1.364,1.364,0,0,0,.333-.951V267.7a.2.2,0,0,1,.2-.2l1.551.066a.2.2,0,0,1,.2.2v.2a3.061,3.061,0,0,1-.867,2.276,3.125,3.125,0,0,1-2.3.859m-6.469-.133a.19.19,0,0,1-.141-.058.193.193,0,0,1-.059-.142V259.493a.194.194,0,0,1,.059-.142.19.19,0,0,1,.141-.058h1.534a.2.2,0,0,1,.2.2v11.271a.2.2,0,0,1-.2.2Zm-5.87-10a.074.074,0,0,0-.083.083v3.319a.074.074,0,0,0,.083.083H265.3a1.2,1.2,0,0,0,.976-.466,1.969,1.969,0,0,0,.375-1.268,2,2,0,0,0-.375-1.276,1.187,1.187,0,0,0-.976-.475Zm2.6,10a.21.21,0,0,1-.217-.166l-1.417-4.786c-.022-.044-.05-.066-.083-.066h-.884a.073.073,0,0,0-.083.083v4.735a.2.2,0,0,1-.2.2h-1.534a.2.2,0,0,1-.2-.2V259.493a.2.2,0,0,1,.058-.142.194.194,0,0,1,.142-.058H265.6a2.781,2.781,0,0,1,2.61,1.626,4.026,4.026,0,0,1,.375,1.775,3.744,3.744,0,0,1-.4,1.784,2.68,2.68,0,0,1-1.118,1.134c-.044.011-.061.045-.05.1l1.634,5.019a.186.186,0,0,1,.017.083c0,.1-.061.15-.183.15Zm-6.169-11.671a.19.19,0,0,1,.141.058.2.2,0,0,1,.059.142v1.267a.193.193,0,0,1-.059.142.19.19,0,0,1-.141.058H258.6a.074.074,0,0,0-.083.083v9.721a.2.2,0,0,1-.2.2h-1.534a.19.19,0,0,1-.141-.058.193.193,0,0,1-.059-.142v-9.721a.074.074,0,0,0-.083-.083h-2a.2.2,0,0,1-.2-.2v-1.267a.194.194,0,0,1,.058-.142.191.191,0,0,1,.141-.058Zm-10.672,11.8a2.952,2.952,0,0,1-3.135-3.134v-5.686a3.042,3.042,0,0,1,.859-2.276,3.112,3.112,0,0,1,2.276-.842,3.162,3.162,0,0,1,2.3.842,3.028,3.028,0,0,1,.867,2.276v.2a.223.223,0,0,1-.058.151.182.182,0,0,1-.141.066l-1.551.067a.177.177,0,0,1-.2-.2v-.417a1.361,1.361,0,0,0-.333-.95,1.137,1.137,0,0,0-.884-.367,1.116,1.116,0,0,0-.867.367,1.355,1.355,0,0,0-.334.95v5.969a1.357,1.357,0,0,0,.334.951,1.117,1.117,0,0,0,.867.366,1.139,1.139,0,0,0,.884-.366,1.363,1.363,0,0,0,.333-.951V267.7a.2.2,0,0,1,.2-.2l1.551.066a.2.2,0,0,1,.2.2v.2a3.061,3.061,0,0,1-.867,2.276A3.125,3.125,0,0,1,250.048,271.1Zm-4.369-10.338a.2.2,0,0,1-.2.2h-3.6a.074.074,0,0,0-.083.083V264.2a.073.073,0,0,0,.083.083h2.134a.2.2,0,0,1,.2.2v1.284a.2.2,0,0,1-.2.2h-2.134a.074.074,0,0,0-.083.084v3.168a.074.074,0,0,0,.083.083h3.6a.2.2,0,0,1,.2.2v1.267a.2.2,0,0,1-.2.2H240.06a.19.19,0,0,1-.141-.058.193.193,0,0,1-.059-.142V259.493a.194.194,0,0,1,.059-.142.19.19,0,0,1,.141-.058h5.419a.2.2,0,0,1,.2.2Zm-12.539,10.2a.2.2,0,0,1-.2-.2V259.493a.2.2,0,0,1,.2-.2h1.535a.191.191,0,0,1,.141.058.194.194,0,0,1,.059.142v9.721a.073.073,0,0,0,.083.083h3.6a.193.193,0,0,1,.142.058.2.2,0,0,1,.058.142v1.267a.2.2,0,0,1-.058.142.193.193,0,0,1-.142.058Zm-1.634-10.2a.2.2,0,0,1-.2.2h-3.6a.074.074,0,0,0-.083.083V264.2a.073.073,0,0,0,.083.083h2.134a.2.2,0,0,1,.2.2v1.284a.2.2,0,0,1-.2.2H227.7a.074.074,0,0,0-.083.084v3.168a.074.074,0,0,0,.083.083h3.6a.2.2,0,0,1,.2.2v1.267a.2.2,0,0,1-.2.2h-5.419a.191.191,0,0,1-.141-.058.193.193,0,0,1-.059-.142V259.493a.194.194,0,0,1,.059-.142.191.191,0,0,1,.141-.058h5.419a.2.2,0,0,1,.2.2Zm-15.939,8.687a2.428,2.428,0,0,0,1.534-.65.074.074,0,0,0,.017-.116l-.617-.8-1.151-1.5a.074.074,0,0,0-.117-.017,2.317,2.317,0,0,0-1,1.734,1.381,1.381,0,0,0,.349.967A1.267,1.267,0,0,0,215.567,269.448Zm.233-8.537a.841.841,0,0,0-.692.325,1.313,1.313,0,0,0-.258.842,1.723,1.723,0,0,0,.125.667,6.7,6.7,0,0,0,.608,1c.033.055.073.067.117.033a3.779,3.779,0,0,0,.792-.834,1.605,1.605,0,0,0,.274-.9,1.2,1.2,0,0,0-.274-.817A.881.881,0,0,0,215.8,260.91Zm4.952,9.8a.225.225,0,0,1,.05.134c0,.077-.055.116-.166.116h-1.651a.318.318,0,0,1-.25-.116l-.484-.65a.091.091,0,0,0-.116-.017,4.36,4.36,0,0,1-2.751.934,3.28,3.28,0,0,1-2.26-.734,2.708,2.708,0,0,1-.825-2.134,3.38,3.38,0,0,1,.5-1.875,6.057,6.057,0,0,1,1.367-1.459.074.074,0,0,0,.016-.117,10.927,10.927,0,0,1-1.033-1.642,2.756,2.756,0,0,1,2.6-3.993,3.15,3.15,0,0,1,1.517.358,2.659,2.659,0,0,1,1.051,1.009,2.9,2.9,0,0,1,.384,1.5,2.991,2.991,0,0,1-.526,1.775,6.609,6.609,0,0,1-1.425,1.426.074.074,0,0,0-.017.117c.045.066.255.356.634.867l.867,1.184a.094.094,0,0,0,.066.034.052.052,0,0,0,.05-.034,10.073,10.073,0,0,0,.767-1.267.184.184,0,0,1,.283-.083l1.134.65c.11.078.133.167.066.267a13.829,13.829,0,0,1-1.168,1.884c-.033.045-.039.084-.016.117Q219.835,269.481,220.752,270.714Zm-16.19.383a3.147,3.147,0,0,1-2.276-.825,2.9,2.9,0,0,1-.859-2.192v-5.9a2.9,2.9,0,0,1,.859-2.193,3.15,3.15,0,0,1,2.276-.825,3.208,3.208,0,0,1,2.292.825,2.891,2.891,0,0,1,.876,2.209v.65a.193.193,0,0,1-.059.142.19.19,0,0,1-.141.058H206a.191.191,0,0,1-.141-.058.193.193,0,0,1-.059-.142v-.683a1.362,1.362,0,0,0-.341-.967,1.163,1.163,0,0,0-.892-.367,1.135,1.135,0,0,0-.884.367,1.381,1.381,0,0,0-.333.967V268.1a1.384,1.384,0,0,0,.333.967,1.137,1.137,0,0,0,.884.366,1.165,1.165,0,0,0,.892-.366,1.365,1.365,0,0,0,.341-.967v-1.6a.074.074,0,0,0-.083-.084H204.7a.193.193,0,0,1-.141-.059.191.191,0,0,1-.059-.141V265a.2.2,0,0,1,.2-.2h2.835a.19.19,0,0,1,.141.058.193.193,0,0,1,.059.142v3.084a2.868,2.868,0,0,1-.876,2.192A3.2,3.2,0,0,1,204.562,271.1Zm-6.652-11.6a.2.2,0,0,1,.2-.2h1.518a.2.2,0,0,1,.2.2v11.271a.2.2,0,0,1-.2.2h-1.751a.21.21,0,0,1-.217-.166l-2.484-7.07c-.011-.033-.031-.047-.059-.041s-.041.025-.041.058l.016,7.02a.2.2,0,0,1-.2.2h-1.518a.19.19,0,0,1-.141-.058.193.193,0,0,1-.059-.142V259.493a.194.194,0,0,1,.059-.142.19.19,0,0,1,.141-.058h1.717a.209.209,0,0,1,.217.166l2.5,7.02c.011.033.03.047.058.042a.052.052,0,0,0,.042-.059Zm-8.27,11.471a.2.2,0,0,1-.2-.2V259.493a.2.2,0,0,1,.2-.2h1.534a.2.2,0,0,1,.2.2v11.271a.2.2,0,0,1-.2.2Zm-1.751-11.671a.2.2,0,0,1,.2.2v1.267a.2.2,0,0,1-.2.2h-2.117a.073.073,0,0,0-.083.083v9.721a.2.2,0,0,1-.2.2h-1.535a.2.2,0,0,1-.2-.2v-9.721a.074.074,0,0,0-.084-.083h-2a.193.193,0,0,1-.142-.058.2.2,0,0,1-.058-.142v-1.267a.2.2,0,0,1,.058-.142.193.193,0,0,1,.142-.058Zm-9.721.2a.2.2,0,0,1,.059-.142.191.191,0,0,1,.142-.058H179.9a.2.2,0,0,1,.2.2v11.271a.2.2,0,0,1-.2.2h-1.533a.2.2,0,0,1-.2-.2v-4.718a.074.074,0,0,0-.083-.084h-2.117a.074.074,0,0,0-.083.084v4.718a.2.2,0,0,1-.2.2h-1.535a.2.2,0,0,1-.2-.2V259.493a.2.2,0,0,1,.2-.2h1.535a.192.192,0,0,1,.141.058.2.2,0,0,1,.059.142v4.7a.073.073,0,0,0,.083.083h2.117a.073.073,0,0,0,.083-.083Zm-8.987,11.6a3.147,3.147,0,0,1-2.276-.825,2.9,2.9,0,0,1-.859-2.192v-5.9a2.9,2.9,0,0,1,.859-2.193,3.15,3.15,0,0,1,2.276-.825,3.208,3.208,0,0,1,2.292.825,2.893,2.893,0,0,1,.875,2.209v.65a.2.2,0,0,1-.2.2h-1.534a.193.193,0,0,1-.142-.058.2.2,0,0,1-.058-.142v-.683a1.36,1.36,0,0,0-.342-.967,1.162,1.162,0,0,0-.892-.367,1.137,1.137,0,0,0-.884.367,1.381,1.381,0,0,0-.333.967V268.1a1.384,1.384,0,0,0,.333.967,1.139,1.139,0,0,0,.884.366,1.164,1.164,0,0,0,.892-.366,1.363,1.363,0,0,0,.342-.967v-1.6a.074.074,0,0,0-.083-.084h-1.018a.2.2,0,0,1-.2-.2V265a.193.193,0,0,1,.059-.142.19.19,0,0,1,.141-.058h2.835a.2.2,0,0,1,.2.2v3.084a2.871,2.871,0,0,1-.875,2.192A3.2,3.2,0,0,1,169.18,271.1Zm-6.47-.133a.2.2,0,0,1-.2-.2V259.493a.2.2,0,0,1,.2-.2h1.535a.2.2,0,0,1,.2.2v11.271a.2.2,0,0,1-.2.2Zm-6.919,0a.191.191,0,0,1-.141-.058.193.193,0,0,1-.059-.142V259.493a.194.194,0,0,1,.059-.142.191.191,0,0,1,.141-.058h1.534a.2.2,0,0,1,.2.2v9.721a.074.074,0,0,0,.083.083h3.6a.191.191,0,0,1,.141.058.193.193,0,0,1,.059.142v1.267a.193.193,0,0,1-.059.142.191.191,0,0,1-.141.058Z" transform="translate(-0.011 -19.69)"/><path class="b" d="M262.632,232.473a.809.809,0,0,1-.811-.811V186.008a.808.808,0,0,1,.811-.81h7.9a.808.808,0,0,1,.811.81v17.019q0,.269.168.3t.236-.237l8.712-17.289a1.041,1.041,0,0,1,.945-.607h8.375a.743.743,0,0,1,.642.236.724.724,0,0,1-.034.708l-10,19.451a1.838,1.838,0,0,0-.067.405l10.6,25.529a.928.928,0,0,1,.068.405q0,.54-.675.54H281.88a.886.886,0,0,1-.946-.608l-7.023-17.694c-.045-.135-.113-.191-.2-.169a.6.6,0,0,0-.27.169l-1.958,3.512a1.038,1.038,0,0,0-.135.405v13.575a.809.809,0,0,1-.811.811Zm-19.383.54a13.328,13.328,0,0,1-9.759-3.613,12.964,12.964,0,0,1-3.681-9.692V197.826a12.763,12.763,0,0,1,3.681-9.59,13.4,13.4,0,0,1,9.759-3.579q6.146,0,9.827,3.579a12.763,12.763,0,0,1,3.68,9.59v.743a.808.808,0,0,1-.81.811l-7.9.337q-.81,0-.81-.742v-1.756a4.6,4.6,0,0,0-1.08-3.174,3.693,3.693,0,0,0-2.9-1.216,3.612,3.612,0,0,0-2.836,1.216,4.6,4.6,0,0,0-1.081,3.174v23.3a4.474,4.474,0,0,0,1.081,3.14,3.661,3.661,0,0,0,2.836,1.182,3.745,3.745,0,0,0,2.9-1.182,4.473,4.473,0,0,0,1.08-3.14v-1.824a.806.806,0,0,1,.81-.81l7.9.338a.806.806,0,0,1,.81.81v.675a12.9,12.9,0,0,1-3.715,9.692A13.444,13.444,0,0,1,243.249,233.013Zm-31.742-8.172a3.836,3.836,0,0,0,3.039-1.317,5.107,5.107,0,0,0,1.148-3.478V197.624a5.1,5.1,0,0,0-1.148-3.478,3.834,3.834,0,0,0-3.039-1.318,3.733,3.733,0,0,0-3.005,1.318,5.2,5.2,0,0,0-1.115,3.478v22.422a5.2,5.2,0,0,0,1.115,3.478A3.734,3.734,0,0,0,211.507,224.841Zm0,8.172q-6.213,0-9.928-3.647a13.012,13.012,0,0,1-3.715-9.725V198.029a13.011,13.011,0,0,1,3.715-9.725q3.714-3.647,9.928-3.647a13.674,13.674,0,0,1,9.962,3.647,12.949,12.949,0,0,1,3.748,9.725V219.64a12.95,12.95,0,0,1-3.748,9.725A13.674,13.674,0,0,1,211.507,233.013Z" transform="translate(-11.184)"/><path class="b" d="M165.07,231.857a.806.806,0,0,1-.81.81h-7.9a.806.806,0,0,1-.81-.81V186.206a.808.808,0,0,1,.81-.811h11.073L158.526,203.8h6.543Zm9.117.81a.889.889,0,0,1-.945-.675l-5.129-18.386,7.569-15.643h-6.544V185.4H170a12.353,12.353,0,0,1,6.618,1.79,11.906,11.906,0,0,1,4.491,5.031,16.685,16.685,0,0,1,1.587,7.429,15.5,15.5,0,0,1-1.519,7.023,11.412,11.412,0,0,1-4.221,4.727.627.627,0,0,0-.2.169.26.26,0,0,0,0,.236l6.212,19.922.068.271q0,.674-.743.675Z" transform="translate(0 -0.195)"/><path class="a" d="M256.822,286.131a.037.037,0,0,0-.042.042v2.34a.037.037,0,0,0,.042.041h.773a.836.836,0,0,0,.689-.329,1.359,1.359,0,0,0,.261-.871,1.4,1.4,0,0,0-.261-.894.836.836,0,0,0-.689-.329Zm1.858,6.443a.122.122,0,0,1-.125-.083l-.961-3.112a.041.041,0,0,0-.042-.032h-.731a.037.037,0,0,0-.042.042v3.08a.092.092,0,0,1-.1.1h-.794a.092.092,0,0,1-.1-.1v-7.1a.092.092,0,0,1,.1-.1h1.869a1.709,1.709,0,0,1,.94.261,1.728,1.728,0,0,1,.631.736,2.493,2.493,0,0,1,.225,1.081,2.306,2.306,0,0,1-.271,1.143,1.625,1.625,0,0,1-.742.7.06.06,0,0,0-.021.063l1.065,3.206.011.042c0,.049-.032.073-.094.073Zm-3.915-6.547a.092.092,0,0,1-.105.1H252.31a.037.037,0,0,0-.042.042v2.267a.037.037,0,0,0,.042.041h1.441a.092.092,0,0,1,.1.1v.658a.092.092,0,0,1-.1.1H252.31a.037.037,0,0,0-.042.042v2.277a.037.037,0,0,0,.042.041h2.349a.093.093,0,0,1,.105.1v.658a.093.093,0,0,1-.105.1H251.37a.092.092,0,0,1-.1-.1v-7.1a.092.092,0,0,1,.1-.1h3.289a.093.093,0,0,1,.105.1Zm-4.564-.763a.093.093,0,0,1,.105.1v.658a.092.092,0,0,1-.105.1h-1.368a.037.037,0,0,0-.042.042v6.3a.092.092,0,0,1-.1.1h-.794a.092.092,0,0,1-.1-.1v-6.3a.037.037,0,0,0-.042-.042h-1.295a.092.092,0,0,1-.1-.1v-.658a.092.092,0,0,1,.1-.1Zm-4.584,0a.092.092,0,0,1,.1.1v.658a.092.092,0,0,1-.1.1h-1.368a.037.037,0,0,0-.042.042v6.3a.092.092,0,0,1-.1.1h-.794a.092.092,0,0,1-.1-.1v-6.3a.037.037,0,0,0-.041-.042h-1.295a.092.092,0,0,1-.1-.1v-.658a.092.092,0,0,1,.1-.1Zm-4.532.763a.092.092,0,0,1-.1.1h-2.35a.037.037,0,0,0-.041.042v2.267a.037.037,0,0,0,.041.041h1.441a.092.092,0,0,1,.1.1v.658a.092.092,0,0,1-.1.1h-1.441a.037.037,0,0,0-.041.042v2.277a.037.037,0,0,0,.041.041h2.35a.092.092,0,0,1,.1.1v.658a.092.092,0,0,1-.1.1H237.69a.093.093,0,0,1-.105-.1v-7.1a.093.093,0,0,1,.105-.1h3.289a.092.092,0,0,1,.1.1Zm-6.433,5.67a.945.945,0,0,0,.758-.324,1.376,1.376,0,0,0,.277-.919,1.473,1.473,0,0,0-.272-.945.908.908,0,0,0-.751-.339h-.731a.037.037,0,0,0-.042.042v2.443a.037.037,0,0,0,.042.042Zm-.72-5.566a.037.037,0,0,0-.042.042v2.214a.037.037,0,0,0,.042.042h.668a.982.982,0,0,0,.763-.3,1.191,1.191,0,0,0,.271-.831,1.265,1.265,0,0,0-.271-.862.964.964,0,0,0-.763-.308Zm2.757,4.449a1.83,1.83,0,0,1-1.953,1.995h-1.744a.092.092,0,0,1-.1-.1v-7.1a.092.092,0,0,1,.1-.1h1.6a2.115,2.115,0,0,1,1.488.5,1.871,1.871,0,0,1,.538,1.447,1.606,1.606,0,0,1-.8,1.556c-.035.021-.038.038-.01.051a1.742,1.742,0,0,1,.653.7A2.269,2.269,0,0,1,236.687,290.58Zm-6.955-5.316a.092.092,0,0,1,.1.1v.658a.092.092,0,0,1-.1.1h-1.368a.037.037,0,0,0-.042.042v6.3a.092.092,0,0,1-.1.1h-.794a.092.092,0,0,1-.1-.1v-6.3a.037.037,0,0,0-.042-.042h-1.295a.092.092,0,0,1-.1-.1v-.658a.092.092,0,0,1,.1-.1Zm-5.712,7.31a.093.093,0,0,1-.105-.1v-7.1a.093.093,0,0,1,.105-.1h.793a.092.092,0,0,1,.1.1v7.1a.092.092,0,0,1-.1.1Zm-5.264-.783a.858.858,0,0,0,.668-.277,1.038,1.038,0,0,0,.251-.726V287.05a1.037,1.037,0,0,0-.251-.725.856.856,0,0,0-.668-.277.829.829,0,0,0-.653.277,1.055,1.055,0,0,0-.245.725v3.739a1.056,1.056,0,0,0,.245.726A.832.832,0,0,0,218.756,291.791Zm0,.867a1.8,1.8,0,0,1-1.9-1.911V287.1a1.892,1.892,0,0,1,.522-1.394,1.852,1.852,0,0,1,1.378-.527,1.813,1.813,0,0,1,1.922,1.922v3.644a1.866,1.866,0,0,1-.528,1.389A1.9,1.9,0,0,1,218.756,292.658Zm-5.65-.992a.037.037,0,0,0,.042.041l.762-.01a.768.768,0,0,0,.637-.308,1.375,1.375,0,0,0,.25-.84V287.29a1.355,1.355,0,0,0-.24-.846.774.774,0,0,0-.647-.313h-.762a.037.037,0,0,0-.042.042Zm-.9.908a.092.092,0,0,1-.1-.1v-7.1a.092.092,0,0,1,.1-.1h1.713a1.825,1.825,0,0,1,1.379.533,2,2,0,0,1,.511,1.441V290.6a1.993,1.993,0,0,1-.511,1.441,1.823,1.823,0,0,1-1.379.533ZM209,286.027a.092.092,0,0,1-.1.1h-2.349a.037.037,0,0,0-.042.042v2.267a.037.037,0,0,0,.042.041h1.441a.092.092,0,0,1,.1.1v.658a.092.092,0,0,1-.1.1h-1.441a.037.037,0,0,0-.042.042v2.277a.037.037,0,0,0,.042.041H208.9a.092.092,0,0,1,.1.1v.658a.092.092,0,0,1-.1.1h-3.289a.092.092,0,0,1-.1-.1v-7.1a.092.092,0,0,1,.1-.1H208.9a.092.092,0,0,1,.1.1Zm-9.116,6.547a.108.108,0,0,1-.116-.093l-1.388-7.1v-.021a.083.083,0,0,1,.094-.094h.825a.1.1,0,0,1,.115.094l.846,4.9c.007.014.014.021.021.021s.014-.007.021-.021l.752-4.9a.1.1,0,0,1,.105-.094h.7a.1.1,0,0,1,.1.094l.8,4.9c.007.014.014.021.021.021s.014-.007.021-.021l.773-4.9a.1.1,0,0,1,.1-.094h.814a.1.1,0,0,1,.079.032.093.093,0,0,1,.015.083l-1.315,7.1a.1.1,0,0,1-.115.093h-.742a.1.1,0,0,1-.1-.093l-.794-4.94c-.007-.014-.015-.021-.026-.021s-.016.007-.016.021l-.751,4.94a.1.1,0,0,1-.1.093Z" transform="translate(-11.32 -26.567)"/><rect class="a" width="27.318" height="0.857" transform="translate(155.564 261.925)"/><rect class="a" width="27.318" height="0.857" transform="translate(252.48 261.925)"/></g></svg>