<svg xmlns="http://www.w3.org/2000/svg" width="21.73" height="23.923" viewBox="0 0 21.73 23.923"><defs><style>.a{fill:none;stroke:#303030;stroke-miterlimit:10;stroke-width:2px;}</style></defs><g transform="translate(1 1)"><path class="a" d="M208.769,102.385c0,3.047-.943,5.031-2.346,5.952a3.639,3.639,0,0,1-4.078,0c-1.4-.921-2.346-2.9-2.346-5.952a4.385,4.385,0,0,1,8.769,0Z" transform="translate(-194.519 -98)"/><path class="a" d="M207.036,107.35a3.493,3.493,0,0,0,2.214,2.9c3.288,1.1,5.481,2.192,5.481,5.481s-9.865,3.288-9.865,3.288-9.865,0-9.865-3.288,2.192-4.385,5.481-5.481a3.493,3.493,0,0,0,2.214-2.9" transform="translate(-195 -97.101)"/></g></svg>