<svg xmlns="http://www.w3.org/2000/svg" width="107.782" height="57.911" viewBox="0 0 107.782 57.911"><defs><style>.a{fill:#242424;}.b{fill:#2480c5;}</style></defs><g transform="translate(-155.548 -184.657)"><path class="a" d="M260.571,269.514a2.56,2.56,0,0,1-2.719-2.718v-4.931a2.639,2.639,0,0,1,.745-1.974,2.7,2.7,0,0,1,1.974-.73,2.743,2.743,0,0,1,2,.73,2.626,2.626,0,0,1,.752,1.974v.173a.194.194,0,0,1-.05.131.158.158,0,0,1-.122.057l-1.345.058a.153.153,0,0,1-.174-.174v-.362a1.18,1.18,0,0,0-.289-.824.986.986,0,0,0-.767-.318.968.968,0,0,0-.752.318,1.175,1.175,0,0,0-.289.824v5.177a1.177,1.177,0,0,0,.289.825.969.969,0,0,0,.752.318.988.988,0,0,0,.767-.318,1.183,1.183,0,0,0,.289-.825v-.361a.172.172,0,0,1,.174-.173l1.345.057a.172.172,0,0,1,.173.174v.174a2.655,2.655,0,0,1-.752,1.974,2.71,2.71,0,0,1-2,.745m-5.611-.115a.165.165,0,0,1-.122-.05.168.168,0,0,1-.051-.123v-9.776a.169.169,0,0,1,.051-.123.164.164,0,0,1,.122-.05h1.33a.172.172,0,0,1,.174.174v9.776a.172.172,0,0,1-.174.174Zm-5.091-8.677a.064.064,0,0,0-.072.072v2.879a.064.064,0,0,0,.072.072h.883a1.037,1.037,0,0,0,.846-.4,1.709,1.709,0,0,0,.325-1.1,1.738,1.738,0,0,0-.325-1.107,1.029,1.029,0,0,0-.846-.412Zm2.256,8.677a.182.182,0,0,1-.188-.144l-1.229-4.151c-.019-.038-.043-.057-.072-.057h-.767a.064.064,0,0,0-.072.072v4.107a.172.172,0,0,1-.174.174h-1.33a.172.172,0,0,1-.174-.174v-9.776a.17.17,0,0,1,.05-.123.168.168,0,0,1,.123-.05h2.719a2.412,2.412,0,0,1,2.263,1.41,3.492,3.492,0,0,1,.325,1.54,3.247,3.247,0,0,1-.347,1.547,2.325,2.325,0,0,1-.969.983c-.038.01-.053.039-.043.087l1.417,4.353a.161.161,0,0,1,.015.072c0,.087-.053.13-.159.13Zm-5.351-10.123a.165.165,0,0,1,.123.05.169.169,0,0,1,.051.123v1.1a.168.168,0,0,1-.051.123.165.165,0,0,1-.123.05h-1.837a.064.064,0,0,0-.072.072v8.432a.172.172,0,0,1-.174.174h-1.33a.165.165,0,0,1-.123-.05.168.168,0,0,1-.051-.123v-8.432a.064.064,0,0,0-.072-.072H241.38a.172.172,0,0,1-.173-.174v-1.1a.168.168,0,0,1,.05-.123.165.165,0,0,1,.123-.05Zm-9.256,10.239A2.56,2.56,0,0,1,234.8,266.8v-4.931a2.639,2.639,0,0,1,.745-1.974,2.7,2.7,0,0,1,1.974-.73,2.743,2.743,0,0,1,2,.73,2.626,2.626,0,0,1,.752,1.974v.173a.194.194,0,0,1-.05.131.158.158,0,0,1-.123.057l-1.345.058a.154.154,0,0,1-.174-.174v-.362a1.18,1.18,0,0,0-.288-.824.986.986,0,0,0-.767-.318.968.968,0,0,0-.752.318,1.175,1.175,0,0,0-.29.824v5.177a1.177,1.177,0,0,0,.29.825.969.969,0,0,0,.752.318.988.988,0,0,0,.767-.318,1.182,1.182,0,0,0,.288-.825v-.361a.173.173,0,0,1,.174-.173l1.345.057a.172.172,0,0,1,.173.174v.174a2.655,2.655,0,0,1-.752,1.974A2.71,2.71,0,0,1,237.518,269.514Zm-3.789-8.966a.172.172,0,0,1-.173.174h-3.124a.064.064,0,0,0-.072.072v2.734a.064.064,0,0,0,.072.072h1.851a.173.173,0,0,1,.174.174v1.114a.172.172,0,0,1-.174.174h-1.851a.064.064,0,0,0-.072.073v2.748a.064.064,0,0,0,.072.072h3.124a.172.172,0,0,1,.173.174v1.1a.172.172,0,0,1-.173.174h-4.7a.165.165,0,0,1-.123-.05.168.168,0,0,1-.051-.123v-9.776a.168.168,0,0,1,.051-.123.165.165,0,0,1,.123-.05h4.7a.172.172,0,0,1,.173.174ZM222.854,269.4a.172.172,0,0,1-.173-.174v-9.776a.172.172,0,0,1,.173-.174h1.331a.165.165,0,0,1,.123.05.169.169,0,0,1,.051.123v8.432a.064.064,0,0,0,.072.072h3.124a.167.167,0,0,1,.123.05.17.17,0,0,1,.05.123v1.1a.17.17,0,0,1-.05.123.167.167,0,0,1-.123.05Zm-1.417-8.851a.172.172,0,0,1-.173.174h-3.124a.064.064,0,0,0-.072.072v2.734a.064.064,0,0,0,.072.072h1.851a.173.173,0,0,1,.174.174v1.114a.172.172,0,0,1-.174.174h-1.851a.064.064,0,0,0-.072.073v2.748a.064.064,0,0,0,.072.072h3.124a.172.172,0,0,1,.173.174v1.1a.172.172,0,0,1-.173.174h-4.7a.166.166,0,0,1-.123-.05.168.168,0,0,1-.051-.123v-9.776a.168.168,0,0,1,.051-.123.165.165,0,0,1,.123-.05h4.7a.172.172,0,0,1,.173.174Zm-13.825,7.535a2.106,2.106,0,0,0,1.331-.564.064.064,0,0,0,.015-.1l-.535-.694-1-1.3a.064.064,0,0,0-.1-.015,2.01,2.01,0,0,0-.867,1.5,1.2,1.2,0,0,0,.3.839A1.1,1.1,0,0,0,207.611,268.083Zm.2-7.4a.73.73,0,0,0-.6.282,1.139,1.139,0,0,0-.224.73,1.494,1.494,0,0,0,.108.579,5.808,5.808,0,0,0,.528.868c.029.048.063.058.1.029a3.278,3.278,0,0,0,.687-.723,1.392,1.392,0,0,0,.238-.781,1.042,1.042,0,0,0-.238-.708A.764.764,0,0,0,207.814,260.678Zm4.3,8.5a.2.2,0,0,1,.043.116c0,.067-.048.1-.144.1h-1.432a.276.276,0,0,1-.217-.1l-.42-.564a.079.079,0,0,0-.1-.015,3.782,3.782,0,0,1-2.386.81,2.845,2.845,0,0,1-1.96-.636,2.349,2.349,0,0,1-.715-1.851,2.931,2.931,0,0,1,.434-1.626,5.252,5.252,0,0,1,1.186-1.265.064.064,0,0,0,.014-.1,9.482,9.482,0,0,1-.9-1.424,2.391,2.391,0,0,1,2.256-3.464,2.732,2.732,0,0,1,1.316.311,2.306,2.306,0,0,1,.911.875,2.511,2.511,0,0,1,.333,1.3,2.594,2.594,0,0,1-.456,1.54,5.732,5.732,0,0,1-1.236,1.237.064.064,0,0,0-.015.1c.039.057.221.309.55.752l.752,1.027a.081.081,0,0,0,.057.029.046.046,0,0,0,.043-.029,8.732,8.732,0,0,0,.666-1.1.16.16,0,0,1,.246-.072l.984.563c.1.068.116.145.057.232a11.987,11.987,0,0,1-1.013,1.634c-.029.039-.034.073-.014.1Q211.314,268.112,212.109,269.182Zm-14.043.332a2.73,2.73,0,0,1-1.974-.716,2.515,2.515,0,0,1-.745-1.9v-5.119a2.517,2.517,0,0,1,.745-1.9,2.732,2.732,0,0,1,1.974-.715,2.782,2.782,0,0,1,1.988.715,2.507,2.507,0,0,1,.759,1.916v.564a.167.167,0,0,1-.051.123.165.165,0,0,1-.123.05h-1.33a.166.166,0,0,1-.123-.05.167.167,0,0,1-.051-.123v-.593a1.181,1.181,0,0,0-.3-.839,1.009,1.009,0,0,0-.774-.318.984.984,0,0,0-.766.318,1.2,1.2,0,0,0-.289.839v5.148a1.2,1.2,0,0,0,.289.839.986.986,0,0,0,.766.318,1.011,1.011,0,0,0,.774-.318,1.184,1.184,0,0,0,.3-.839v-1.388a.064.064,0,0,0-.072-.073h-.883a.167.167,0,0,1-.123-.051.165.165,0,0,1-.051-.122v-1.055a.173.173,0,0,1,.174-.174h2.459a.165.165,0,0,1,.123.05.167.167,0,0,1,.051.123V266.9a2.488,2.488,0,0,1-.759,1.9A2.78,2.78,0,0,1,198.066,269.514Zm-5.77-10.065a.172.172,0,0,1,.173-.174h1.316a.172.172,0,0,1,.174.174v9.776a.172.172,0,0,1-.174.174h-1.519a.182.182,0,0,1-.188-.144l-2.154-6.132c-.01-.029-.027-.041-.051-.036s-.036.022-.036.05l.014,6.088a.172.172,0,0,1-.173.174h-1.316a.165.165,0,0,1-.123-.05.168.168,0,0,1-.051-.123v-9.776a.169.169,0,0,1,.051-.123.164.164,0,0,1,.123-.05h1.489a.181.181,0,0,1,.188.144l2.17,6.089c.01.029.026.041.05.036a.045.045,0,0,0,.036-.051Zm-7.173,9.95a.172.172,0,0,1-.174-.174v-9.776a.172.172,0,0,1,.174-.174h1.331a.172.172,0,0,1,.174.174v9.776a.172.172,0,0,1-.174.174ZM183.6,259.276a.172.172,0,0,1,.174.174v1.1a.172.172,0,0,1-.174.174h-1.837a.064.064,0,0,0-.072.072v8.432a.172.172,0,0,1-.174.174h-1.331a.172.172,0,0,1-.173-.174v-8.432a.064.064,0,0,0-.073-.072H178.21a.167.167,0,0,1-.123-.05.17.17,0,0,1-.05-.123v-1.1a.171.171,0,0,1,.05-.123.167.167,0,0,1,.123-.05Zm-8.432.174a.168.168,0,0,1,.051-.123.166.166,0,0,1,.123-.05h1.33a.172.172,0,0,1,.174.174v9.776a.172.172,0,0,1-.174.174h-1.33a.173.173,0,0,1-.174-.174v-4.092a.064.064,0,0,0-.072-.073h-1.837a.064.064,0,0,0-.072.073v4.092a.173.173,0,0,1-.174.174h-1.331a.172.172,0,0,1-.173-.174v-9.776a.172.172,0,0,1,.173-.174h1.331a.167.167,0,0,1,.123.05.168.168,0,0,1,.051.123v4.078a.063.063,0,0,0,.072.072H175.1a.064.064,0,0,0,.072-.072Zm-7.795,10.065a2.73,2.73,0,0,1-1.974-.716,2.515,2.515,0,0,1-.745-1.9v-5.119a2.517,2.517,0,0,1,.745-1.9,2.732,2.732,0,0,1,1.974-.715,2.782,2.782,0,0,1,1.988.715,2.509,2.509,0,0,1,.759,1.916v.564a.172.172,0,0,1-.173.174h-1.33a.167.167,0,0,1-.123-.05.169.169,0,0,1-.05-.123v-.593a1.179,1.179,0,0,0-.3-.839,1.008,1.008,0,0,0-.773-.318.987.987,0,0,0-.767.318,1.2,1.2,0,0,0-.289.839v5.148a1.2,1.2,0,0,0,.289.839.988.988,0,0,0,.767.318,1.009,1.009,0,0,0,.773-.318,1.182,1.182,0,0,0,.3-.839v-1.388a.064.064,0,0,0-.072-.073h-.883a.174.174,0,0,1-.174-.174v-1.055a.168.168,0,0,1,.051-.123.165.165,0,0,1,.123-.05h2.459a.172.172,0,0,1,.173.174V266.9a2.49,2.49,0,0,1-.759,1.9A2.78,2.78,0,0,1,167.378,269.514Zm-5.612-.115a.172.172,0,0,1-.173-.174v-9.776a.172.172,0,0,1,.173-.174H163.1a.172.172,0,0,1,.174.174v9.776a.172.172,0,0,1-.174.174Zm-6,0a.166.166,0,0,1-.123-.05.167.167,0,0,1-.051-.123v-9.776a.168.168,0,0,1,.051-.123.165.165,0,0,1,.123-.05h1.33a.172.172,0,0,1,.174.174v8.432a.064.064,0,0,0,.072.072h3.124a.166.166,0,0,1,.123.05.168.168,0,0,1,.051.123v1.1a.168.168,0,0,1-.051.123.166.166,0,0,1-.123.05Z" transform="translate(-0.016 -26.961)"/><path class="b" d="M254.041,226.13a.7.7,0,0,1-.7-.7v-39.6a.7.7,0,0,1,.7-.7h6.854a.7.7,0,0,1,.7.7V200.59q0,.234.146.264t.2-.205l7.557-15a.9.9,0,0,1,.82-.526h7.264a.644.644,0,0,1,.556.2.628.628,0,0,1-.029.615l-8.67,16.871a1.6,1.6,0,0,0-.058.352l9.2,22.142a.806.806,0,0,1,.059.352q0,.468-.586.468h-7.322a.769.769,0,0,1-.821-.528l-6.092-15.347c-.039-.117-.1-.166-.176-.147a.521.521,0,0,0-.234.147l-1.7,3.046a.9.9,0,0,0-.117.352v11.774a.7.7,0,0,1-.7.7Zm-16.812.468a11.56,11.56,0,0,1-8.464-3.134,11.244,11.244,0,0,1-3.193-8.406V196.08a11.071,11.071,0,0,1,3.193-8.318,13.172,13.172,0,0,1,16.988,0,11.07,11.07,0,0,1,3.192,8.318v.645a.7.7,0,0,1-.7.7l-6.854.292q-.7,0-.7-.644v-1.523a3.988,3.988,0,0,0-.937-2.753,3.2,3.2,0,0,0-2.519-1.055,3.133,3.133,0,0,0-2.46,1.055,3.988,3.988,0,0,0-.937,2.753v20.21a3.88,3.88,0,0,0,.937,2.724,3.176,3.176,0,0,0,2.46,1.025,3.248,3.248,0,0,0,2.519-1.025,3.88,3.88,0,0,0,.937-2.724V214.18a.7.7,0,0,1,.7-.7l6.854.293a.7.7,0,0,1,.7.7v.586a11.185,11.185,0,0,1-3.222,8.406A11.661,11.661,0,0,1,237.229,226.6ZM209.7,219.511a3.327,3.327,0,0,0,2.636-1.142,4.429,4.429,0,0,0,1-3.017V195.9a4.425,4.425,0,0,0-1-3.016,3.326,3.326,0,0,0-2.636-1.143,3.238,3.238,0,0,0-2.607,1.143,4.51,4.51,0,0,0-.967,3.016v19.448a4.514,4.514,0,0,0,.967,3.017A3.239,3.239,0,0,0,209.7,219.511Zm0,7.088a11.757,11.757,0,0,1-8.611-3.163A11.286,11.286,0,0,1,197.865,215V196.256a11.285,11.285,0,0,1,3.222-8.435,13.342,13.342,0,0,1,17.251,0,11.231,11.231,0,0,1,3.251,8.435V215a11.232,11.232,0,0,1-3.251,8.435A11.86,11.86,0,0,1,209.7,226.6Z" transform="translate(-15.313)"/><path class="b" d="M163.807,225.694a.7.7,0,0,1-.7.7h-6.854a.7.7,0,0,1-.7-.7V186.1a.7.7,0,0,1,.7-.7h9.6l-7.724,15.964h5.676Zm7.908.7a.771.771,0,0,1-.82-.585l-4.449-15.947L173.01,196.3h-5.676V185.4h.749a10.715,10.715,0,0,1,5.74,1.553,10.327,10.327,0,0,1,3.9,4.364,14.472,14.472,0,0,1,1.376,6.443,13.447,13.447,0,0,1-1.318,6.092,9.9,9.9,0,0,1-3.661,4.1.545.545,0,0,0-.175.147.226.226,0,0,0,0,.2l5.388,17.279.059.235q0,.585-.645.585Z" transform="translate(0 -0.267)"/></g></svg>