<svg xmlns="http://www.w3.org/2000/svg" width="19.724" height="19.719" viewBox="0 0 19.724 19.719"><defs><style>.a{fill:#303030;}</style></defs><path class="a" d="M9.859,7.042A5.056,5.056,0,1,0,14.915,12.1,5.048,5.048,0,0,0,9.859,7.042Zm0,8.343A3.287,3.287,0,1,1,13.146,12.1,3.293,3.293,0,0,1,9.859,15.384ZM16.3,6.835a1.179,1.179,0,1,1-1.179-1.179A1.177,1.177,0,0,1,16.3,6.835Zm3.349,1.2A5.836,5.836,0,0,0,18.056,3.9a5.874,5.874,0,0,0-4.132-1.593c-1.628-.092-6.508-.092-8.136,0A5.866,5.866,0,0,0,1.657,3.9,5.855,5.855,0,0,0,.064,8.027c-.092,1.628-.092,6.508,0,8.136a5.836,5.836,0,0,0,1.593,4.132,5.882,5.882,0,0,0,4.132,1.593c1.628.092,6.508.092,8.136,0a5.836,5.836,0,0,0,4.132-1.593,5.874,5.874,0,0,0,1.593-4.132c.092-1.628.092-6.5,0-8.131Zm-2.1,9.878a3.328,3.328,0,0,1-1.874,1.874c-1.3.515-4.378.4-5.813.4s-4.519.114-5.813-.4A3.328,3.328,0,0,1,2.172,17.91c-.515-1.3-.4-4.378-.4-5.813s-.114-4.519.4-5.813A3.328,3.328,0,0,1,4.046,4.41c1.3-.515,4.378-.4,5.813-.4s4.519-.114,5.813.4a3.328,3.328,0,0,1,1.874,1.874c.515,1.3.4,4.378.4,5.813S18.061,16.616,17.546,17.91Z" transform="translate(0.005 -2.238)"/></svg>