<svg xmlns="http://www.w3.org/2000/svg" width="20.981" height="14.752" viewBox="0 0 20.981 14.752"><defs><style>.a{fill:#303030;}</style></defs><path class="a" d="M21.593,6.808a2.636,2.636,0,0,0-1.855-1.867c-1.636-.441-8.2-.441-8.2-.441s-6.561,0-8.2.441A2.636,2.636,0,0,0,1.488,6.808a27.655,27.655,0,0,0-.438,5.083,27.655,27.655,0,0,0,.438,5.083,2.6,2.6,0,0,0,1.855,1.837c1.636.441,8.2.441,8.2.441s6.561,0,8.2-.441a2.6,2.6,0,0,0,1.855-1.837,27.655,27.655,0,0,0,.438-5.083,27.655,27.655,0,0,0-.438-5.083Zm-12.2,8.2V8.771l5.484,3.12-5.484,3.12Z" transform="translate(-1.05 -4.5)"/></svg>