<svg xmlns="http://www.w3.org/2000/svg" width="24.524" height="23.5" viewBox="0 0 24.524 23.5"><defs><style>.a{fill:none;stroke:#303030;stroke-linecap:round;stroke-linejoin:round;stroke-width:2px;}</style></defs><g transform="translate(-0.5 -0.5)"><path class="a" d="M14.048,31.024A1.024,1.024,0,1,1,13.024,30,1.024,1.024,0,0,1,14.048,31.024Z" transform="translate(-2.333 -9.048)"/><path class="a" d="M30.548,31.024A1.024,1.024,0,1,1,29.524,30,1.024,1.024,0,0,1,30.548,31.024Z" transform="translate(-10.571 -9.048)"/><path class="a" d="M1.5,1.5H5.6L8.339,15.209a2.048,2.048,0,0,0,2.048,1.648h9.951a2.048,2.048,0,0,0,2.048-1.648l1.638-8.59H6.619"/></g></svg>